<svg width="187" height="77" viewBox="0 0 187 77" fill="none" xmlns="http://www.w3.org/2000/svg">
<path d="M26.3 45.5H25.5V47.6H26.3V45.5Z" fill="white"/>
<path d="M20.7 46.6C20.6 46.5 20.7 46.5 20.7 46.6C20.6 46.9 20.8 47.1 21 47.1C21.3 47.1 21.4 46.9 21.9 46.8C22 46.8 22 46.7 21.9 46.7C21.9 46.7 21.6 46.7 21.4 46.7C20.9 46.8 20.7 46.7 20.7 46.6Z" fill="white"/>
<path d="M21.6 46.5C21.9 46.3 22.4 46.3 22.3 46.7C22.3 46.7 22.2 46.8 21.8 46.8C21.8 46.8 21.8 46.9 21.9 47C21.9 47 21.8 47.1 21.9 47.2C21.9 47.2 22.3 47 22.5 47.1C22.6 47.3 22.5 47.6 21.9 47.7C21.1 47.8 20.7 48 20.7 48.9C21.3 48.9 21.7 49.1 22.1 49.4C22.8 49.7 23.5 49.3 23.5 49.3C23.3 49.1 23.3 48.7 23.6 48.5C23.7 48.8 24.1 48.8 24.3 48.7C24 48.5 23.9 48.2 24.1 47.9C24.3 48.1 24.7 48 24.7 47.7C24.5 47.8 24.3 47.5 24.3 47.3C24.3 47.1 24.4 46.5 24.2 46.1C24.3 46 24.8 45.8 24.9 45.7C24.9 45.7 24.9 45.7 24.9 45.6C24.7 45.5 24.2 45.6 24.2 45.5L24.1 44.8L23.5 45.1C23.4 45.1 23.2 44.7 23 44.5H22.9C23 44.6 23.1 45.1 23 45.3C22.5 45.3 22.3 45.5 22.2 45.6C22.1 45.6 21.6 45.9 21.6 46C21.6 46 21.6 46.1 21.7 46.1C21.5 46.2 21.5 46.4 21.6 46.5ZM22.6 45.9C22.4 46.2 22.2 46.2 22 46.1C22 45.9 22.2 45.9 22.6 45.9Z" fill="white"/>
<path d="M33.5 42.5C32.9 42.5 32.6 42.5 32.6 42.8C32.9 43.2 33.4 43.1 33.5 42.5Z" fill="white"/>
<path d="M11.4 42.8C11.4 42.5 11.1 42.5 10.5 42.5C10.6 43.1 11.1 43.2 11.4 42.8Z" fill="white"/>
<path d="M18.1 47.8L17.8 48.2C17.7 48.3 18.1 48.5 18.1 48.4L18.5 47.8C18.5 47.8 19.8 48.5 20.2 48.7C20.2 48.4 20.3 48.2 20.5 48C20.1 47.9 19.3 47.6 19.3 47.6C19.3 47.7 19.1 47.7 19 47.7C18.8 47.7 18.7 47.5 18.6 47.4C18.7 47.4 18.8 47.5 18.8 47.4L19 47.2L19.4 47.4L19.6 47.2L19.3 47.1L20.8 45C20.8 45 20.8 44.6 20.8 44.5C20.7 44.5 20.4 44.6 20.3 44.7L18.8 46.8L18.6 46.5L18.4 46.7L18.7 47L18.6 47.2C18.3 47 18 47.2 17.9 47.3C18 47.3 18.3 47.2 18.3 47.4C17.9 47.3 17.8 47.5 17.7 47.6C17.8 47.8 18 47.7 18.1 47.8Z" fill="white"/>
<path d="M26.8 48.7C26.8 48.8 26.7 49 26.4 49C26.1 49 25.6 48.9 25.3 48.9C24.7 48.9 24.4 49.4 24.4 49.7C24.4 50.4 25.2 50.6 25.2 51.3C25.2 51.8 24.5 52 23.9 51.5C23.8 50.9 23.7 50.5 23.3 49.9C21.9 50.3 21.7 49.5 20.9 49.5C20.3 49.5 19.5 50.6 18.8 50.8L18.9 50.1H19V49.6C19 49.6 18.9 49.9 18.8 50C18.8 50 18.8 50 18.7 50C18.6 49.8 18.5 49.5 18.5 49.5C18.5 49.5 18.5 49.9 18.5 50L18.2 49.5C18.2 49.5 18.3 49.9 18.3 50.1L17.9 49.7C17.9 49.7 18 50 18.1 50.3C18 50.2 17.6 50 17.6 50C17.6 50 17.8 50.3 17.9 50.5C17.6 50.4 17.4 50.3 17.4 50.3C17.4 50.3 17.6 50.5 17.8 50.7C17.7 50.7 17.3 50.7 17.3 50.7L17.8 50.9V50.8L18.2 50.9C18.1 51 18.1 51.2 18.2 51.3C18.2 51.2 18.4 51.1 18.6 51.1C18.5 51.1 18.2 51.3 18.3 51.6C18.4 51.5 18.6 51.4 18.7 51.4V52C19.2 52.1 19.6 51.8 19.7 51.3L19.2 51.2C19.7 50.8 20.5 50.5 21.2 50.5C22.3 50.5 23 51.7 23 52.3C23 52.5 23 52.7 22.9 52.9C22.7 53.2 22.5 53.1 22.5 53.1C22.6 53.5 23.1 53.5 23.1 53.3C23.3 54.2 24.4 53.2 25 54.4C25 54.4 24.7 54.6 24.5 54.5C24.2 54.3 24 54.5 23.9 54.6C24.3 54.5 24.4 54.8 24.4 54.8C24.1 54.7 23.8 54.8 23.9 55.3C24 55 24.3 55.1 24.3 55.1C24.1 55.2 23.9 55.5 24.3 55.7C24.3 55.5 24.4 55.3 24.5 55.3C24.6 55.3 24.8 55.3 24.9 55C25.1 55.3 25.4 55.2 25.5 55.1C25.3 55 25 54.9 25.3 54.7C25.3 54.7 25.7 54.9 25.9 54.4C25.9 54.4 25.5 54.6 25.4 54.2C25.3 53.9 25.3 53.5 25.1 53.4C25.3 53.3 25.4 53.1 25.2 52.8C25.2 53.4 23.9 52.9 23.9 52C24.8 52.2 25.7 52 25.7 51.1C25.7 50.2 24.9 49.9 24.9 49.4C24.9 49.1 25.1 49 25.3 49C25.7 49 26 49.4 26.1 49.7C26.2 49.5 26.2 49.2 26.1 49.2C26.2 49.2 26.9 49.2 26.9 48.7C26.9 48.5 26.8 48.5 26.9 48.4C26.9 48.6 26.8 48.6 26.8 48.7Z" fill="white"/>
<path d="M0 0V77H44V0H0ZM32.6 42.2C32.7 41.9 33 41.5 34.1 41.7C34.6 41.8 35 41.6 34.8 41.3C34.8 41.3 34.9 41.2 34.9 41.3C35 41.4 35.2 41.7 34.7 42C34.2 42.2 34.2 42.7 34.2 42.8C34.2 42.9 34.3 42.9 34.3 42.8C34.5 42 35.6 41.8 36.3 42.2C36.3 42.6 35.8 42.9 35.5 42.9C35.4 42.9 35.1 42.7 35.1 42.6C35.1 42.5 35.1 42.5 35 42.6C34.9 42.9 35.3 43.5 36 43.1C36.7 43.8 36.4 44.6 36.3 44.9C36.2 45.4 36.4 46 36.9 45.7C36.9 46 36.5 46.4 35.9 46.1C35.8 46.2 35.1 47.1 36.2 47.5C36.3 47.5 36.3 47.6 36.2 47.6C35.4 47.9 35 47.3 35 47.3C34.6 48.2 35.2 48.8 35.2 48.8C35.1 49 34.7 49.3 34.1 49.4C33.9 49.3 33.6 49 33.4 48.7C33.4 48.7 33.2 49.1 33.4 49.5C31.7 49.7 31.1 48.3 29.8 48.6C29.8 48.6 29.8 48.6 29.8 48.5C29.8 47.7 30.3 46.2 31.9 45.9C33.5 45.6 33.1 44.9 33.1 44.9C32.4 44.9 32 45.2 32 45.2C31.9 45 32 44.8 32 44.8C31.9 44.7 31.9 44.4 31.9 44.4C32.7 44.4 32.9 44.2 32.9 44.2C33 43.8 32.7 43.1 31.6 43.8C31.3 43.6 31.3 43.2 31.3 43.2C31.2 43.2 31.2 43 31.2 43C31.5 42.7 32.4 42.2 32.6 42.2ZM30 43.8C30 43.7 30.1 43.7 30 43.8C30.1 44 30.5 44.2 30.8 44.2C31.2 44.2 31.3 44.1 31.9 44.1C31.9 44.1 32.4 44.1 32.4 44.2C32.4 44.3 32.2 44.2 31.9 44.3C31.3 44.4 31.1 44.7 30.6 44.7C30.3 44.6 29.9 44.3 30 43.8ZM21.3 33.6C21.4 33.6 21.6 33.7 21.6 33.7C21.7 33.8 21.8 33.8 21.9 33.7C21.9 33.7 22 33.6 21.9 33.4C21.9 33.3 21.8 33.2 21.8 33.1C21.8 32.9 21.9 32.7 22.1 32.7C22.2 32.7 22.4 32.8 22.4 33.1C22.4 33.2 22.3 33.4 22.3 33.4C22.2 33.5 22.2 33.6 22.3 33.7C22.3 33.7 22.4 33.8 22.6 33.7C22.7 33.7 22.8 33.6 22.9 33.6C23.1 33.6 23.3 33.7 23.3 33.9C23.3 34 23.2 34.2 22.9 34.2C22.8 34.2 22.6 34.1 22.6 34.1C22.5 34 22.4 34 22.3 34.1C22.3 34.1 22.3 34.6 22.4 35C22.8 35.1 23 35.4 23 35.6C23 36.1 22.5 36.4 22.2 36.5C21.9 36.3 21.4 36.1 21.4 35.6C21.4 35.4 21.6 35.1 22 35C22.1 34.6 22.1 34.1 22.1 34.1C22.1 34.1 22 34 21.8 34.1C21.7 34.1 21.6 34.2 21.5 34.2C21.3 34.2 21.1 34.1 21.1 33.9C20.9 33.8 21 33.6 21.3 33.6ZM22.6 37.3C22.6 37.6 22.3 37.9 22 37.9C21.7 37.9 21.4 37.6 21.4 37.3C21.4 37 21.7 36.7 22 36.7C22.3 36.7 22.6 37 22.6 37.3ZM17.3 37.4C17.8 37.4 17.8 37.8 18.2 37.8C18.3 37.8 18.3 37.8 18.3 37.8C18.3 37.9 18.2 38.2 18 38.2C17.7 38.2 17.7 37.9 17.5 37.9C17.4 37.9 17.3 38 17.3 38.3C17.3 38.9 17.7 39.5 18.1 39.9C18.2 39.8 18.3 39.7 18.5 39.7C18.7 39.7 19 40 19 40.3C19 40.4 19 40.5 18.9 40.6C19 40.7 19.2 40.7 19.3 40.7C19.5 40.7 19.8 40.6 19.8 40.2C19.8 39.3 18.5 38.4 18.5 37.2C18.5 36.6 18.9 36.1 19.7 36.1C20.5 36.1 20.4 36.9 21.1 36.9H21.2C21.2 36.9 21.1 37.4 20.7 37.4C20.3 37.4 20.2 36.7 19.8 36.7C19.7 36.7 19.5 36.8 19.5 37.3C19.5 37.7 19.7 38.3 20 38.8C20.1 38.7 20.2 38.6 20.4 38.6C20.7 38.6 20.9 38.9 20.9 39.3C20.9 39.5 20.8 39.8 20.7 39.9C20.9 40.1 21.1 40.3 21.3 40.3C21.8 40.3 22 40 22 39.7C22 39.4 21.4 39.2 21.4 38.7C21.4 38.3 21.6 38.1 21.9 38.1C22.1 38.1 22.3 38.3 22.3 38.3C22.3 38.3 22.4 38.1 22.7 38.1C22.9 38.1 23.2 38.3 23.2 38.7C23.2 39.2 22.6 39.4 22.6 39.7C22.6 40 22.8 40.3 23.3 40.3C23.5 40.3 23.7 40.1 23.9 39.9C23.7 39.8 23.7 39.5 23.7 39.3C23.7 38.9 23.9 38.6 24.2 38.6C24.3 38.6 24.5 38.7 24.6 38.8C24.9 38.2 25.1 37.6 25.1 37.3C25.1 36.8 24.9 36.7 24.8 36.7C24.4 36.7 24.3 37.4 23.9 37.4C23.5 37.4 23.4 37 23.4 36.9C23.4 36.9 23.4 36.9 23.5 36.9C24.2 36.9 24.1 36.1 24.9 36.1C25.7 36.1 26.1 36.7 26.1 37.2C26.1 38.4 24.8 39.2 24.8 40.2C24.8 40.6 25.1 40.7 25.3 40.7C25.4 40.7 25.5 40.7 25.7 40.6C25.7 40.5 25.6 40.4 25.6 40.3C25.6 40 25.8 39.7 26.1 39.7C26.3 39.7 26.4 39.8 26.5 39.9C26.9 39.4 27.3 38.8 27.3 38.3C27.3 38 27.2 37.9 27.1 37.9C26.9 37.9 26.9 38.2 26.6 38.2C26.4 38.2 26.3 38 26.3 37.8H26.4C26.8 37.8 26.8 37.4 27.3 37.4C27.5 37.4 28.1 37.5 28.1 38.4C28.1 39.7 26.5 40.1 26.9 41.1C26.2 41 26.2 41.7 26.2 42.9C26.2 42.9 24.9 42.4 22.5 42.4C20.1 42.4 18.8 42.9 18.9 42.9C18.9 41.7 18.9 41.1 18.2 41.1C18.6 40.1 17 39.7 17 38.4C16.5 37.5 17.1 37.4 17.3 37.4ZM13.9 43.7C14.1 44.3 13.7 44.5 13.4 44.5C13 44.5 12.7 44.2 12.1 44.1C11.8 44.1 11.6 44.1 11.6 44H12C12.6 44 12.7 44.1 13.1 44.1C13.5 44.1 13.8 44 13.9 43.7ZM6.9 45.7C7.4 45.9 7.6 45.4 7.5 44.9C7.4 44.6 7.2 43.8 7.8 43.1C8.4 43.5 8.9 42.9 8.8 42.6C8.8 42.5 8.7 42.5 8.7 42.6C8.7 42.8 8.5 42.9 8.3 42.9C8 42.9 7.6 42.6 7.5 42.2C8.2 41.8 9.3 41.9 9.5 42.8C9.5 42.9 9.6 42.9 9.6 42.8C9.6 42.7 9.6 42.2 9.1 42C8.7 41.8 8.8 41.5 8.9 41.3H9C8.8 41.6 9.2 41.7 9.7 41.7C10.8 41.6 11.1 41.9 11.2 42.2C11.4 42.3 12.3 42.8 12.3 43C12.3 43.1 12.2 43.2 12.2 43.2C12.2 43.2 12.2 43.6 11.9 43.8C10.8 43.1 10.5 43.8 10.6 44.2C10.6 44.2 10.8 44.4 11.5 44.4C11.5 44.4 11.5 44.7 11.4 44.8C11.4 44.8 11.6 45 11.4 45.2C11.4 45.2 11 44.9 10.3 44.9C10.3 44.9 9.9 45.6 11.5 45.9C13.1 46.2 13.6 47.7 13.6 48.5V48.6C12.3 48.4 11.7 49.7 10.1 49.5C10.2 49.1 10.1 48.7 10.1 48.7C10 49.1 9.6 49.3 9.4 49.4C8.8 49.3 8.4 49 8.3 48.8C8.3 48.8 8.9 48.3 8.5 47.3C8.5 47.3 8.1 47.9 7.3 47.6C7.2 47.6 7.2 47.5 7.3 47.5C8.4 47.1 7.7 46.2 7.6 46.1C7.3 46.4 6.9 46 6.9 45.7ZM15 63.6C15 65.3 12.2 63.7 9.6 63.5C7.4 63.4 6.8 64 6.8 64L7.2 61.8C7.2 61.7 7.7 61.3 9.2 61.3C11 61.3 11.9 61.7 12.3 61.8V63C12.3 63.3 12.4 63.4 12.6 63.5C12.6 63.4 12.9 62.7 15 62.7V63.6ZM12.6 54.8C12.3 54.6 11 54.1 10.3 53.8C10.5 53.7 10.7 53.6 10.7 53.4C10.7 53.2 10.7 53 10.5 52.9C10.8 52.5 11.5 52.3 11.9 52.3C13.3 52.3 14.5 54.2 15.1 54.2C15.2 54.2 15.3 54.2 15.3 54C15.3 54.6 15 54.6 14.8 54.6C14.7 54.6 14.6 54.6 14.5 54.5V54.6C14.5 55.3 13.8 56 13.8 56C14.1 56.3 14.9 56.9 15.1 56.6C15.2 56.5 15.6 55.7 16.2 56.3C15.9 56.3 15.6 56.5 15.7 56.8C16.2 56.4 16.8 56.5 16.8 57.3C16.5 56.9 16 57.2 16 57.2C16.3 57.2 16.9 57.6 16.4 58.3C16.4 57.9 16.1 57.8 15.9 57.8C15.5 57.8 15.1 58.2 14.8 57.8C14.7 58.4 14 58.3 13.9 58.3C14.1 58.2 14.2 58 14.2 57.8C14.2 57.4 13.5 57 13.2 57C13 57 12.9 57.2 12.5 57.2C12.3 57.2 12.1 57.1 11.9 56.9C12 56.9 12.5 57 12.7 56.3C12.8 55.7 12.9 55.1 12.6 54.8ZM12.8 62.5L12.7 60.2C12.7 59.5 17.2 59.1 21.9 59.1C26.6 59.1 31.1 59.5 31.1 60.2V62.5C31.1 62.5 31.1 62.6 31 62.5C30.4 61.8 26.1 61.6 21.8 61.6C17.5 61.6 13.4 61.9 12.8 62.5ZM27.7 56.5C28.2 55.9 28.6 56.6 28.7 56.7C28.9 57 29.7 56.4 30 56.1C30 56.1 29.3 55.4 29.3 54.7V54.6C29.2 54.6 29.1 54.7 29 54.7C28.8 54.7 28.5 54.7 28.5 54.1C28.6 54.2 28.7 54.3 28.7 54.3C29.3 54.3 30.5 52.4 31.9 52.4C32.3 52.4 33 52.7 33.3 53C33.1 53.1 33.1 53.3 33.1 53.5C33.1 53.7 33.3 53.9 33.5 53.9C32.8 54.2 31.5 54.7 31.2 54.9C30.8 55.2 30.9 55.8 31.1 56.6C31.3 57.4 31.7 57.2 31.9 57.2C31.7 57.4 31.5 57.5 31.3 57.5C30.9 57.5 30.8 57.3 30.6 57.3C30.3 57.3 29.6 57.8 29.6 58.1C29.6 58.3 29.8 58.5 30 58.6C29.8 58.6 29.2 58.7 29.1 58.1C28.8 58.5 28.4 58.1 28 58.1C27.8 58.1 27.5 58.2 27.5 58.6C27 57.9 27.6 57.6 27.9 57.5C27.8 57.4 27.4 57.2 27.1 57.6C27.1 56.8 27.7 56.7 28.2 57.1C28.3 56.7 28 56.5 27.7 56.5ZM34.4 63.6C31.7 63.8 29 65.3 29 63.7V62.7C31.1 62.7 31.4 63.4 31.4 63.5C31.6 63.4 31.7 63.3 31.7 63V61.8C32 61.7 32.9 61.3 34.8 61.3C36.3 61.3 36.8 61.6 36.8 61.8L37.2 64C37.2 64 36.6 63.4 34.4 63.6ZM40.1 48.3C39.8 48.3 39.6 48.2 39.5 48.2C39.4 48.2 39.4 48.2 39.4 48.2C39.7 48.5 39.7 49.1 39.6 49.2H39.5C39.3 48.6 38.8 48.1 38.1 48.1C37.2 48.1 37.2 48.9 37.2 49.1C37.2 50.2 39.2 51 39.2 52.5C39.2 54 37.6 54.4 36.6 54.1C36.7 55.6 38.4 56.2 38.5 55.1C38.5 55 38.5 55 38.6 55.1C38.8 55.6 38.7 56.1 38.1 56.3C38 56.3 38.1 56.3 38.1 56.4C38.8 56.8 38.4 58.5 38.4 59C38.4 59.7 39.1 59.6 39.1 59.6C39.1 59.6 39.1 59.6 39.1 59.7C38.6 60.3 38 59.7 38 59.7C37.5 59.9 37.8 60.3 38.1 60.5V60.6C38 60.6 37.3 60.7 37.2 60.1C36.9 60.5 36.4 60.3 36.3 60.3C36.2 60.2 35.5 60 35.4 60.8C35.4 60.9 35.4 60.8 35.3 60.8C34.8 60.1 35.3 59.7 35.6 59.7C35.6 59.7 35.2 59.3 34.8 59.8H34.7C34.7 59 35.3 58.9 35.8 59.2C35.8 59.1 36 58.6 35.3 58.7C35.3 58.7 35.3 58.7 35.3 58.6C35.8 58.1 36.2 58.6 36.3 58.7C36.5 59 37.1 58.9 37.1 58.9C36.9 56 34.4 57 34 55.6C34 55.5 34 55.5 33.9 55.6C33.8 55.9 32.9 56 32.8 55.3C33.5 56 35.2 53.7 32.9 51.9C31 50.3 29.2 51.2 28.6 51.7C28.6 51.9 28.7 52 28.8 52C28.8 52 28.8 52 28.8 52.1C28.6 52.2 28.3 52.1 28.2 52C27.8 52.3 28.1 52.7 28.3 52.8V52.9C27.9 53 27.6 52.6 27.6 52.4H27.5V54C27.5 56.3 24.8 56.7 21.8 58.6C18.8 56.6 16.1 56.3 16.1 54V52.4H16C16 52.6 15.7 53 15.3 52.9C15.3 52.9 15.3 52.9 15.3 52.8C15.5 52.7 15.8 52.3 15.4 52C15.3 52.2 15 52.2 14.8 52.1C14.7 52.1 14.8 52 14.8 52C14.9 52 15 51.9 15 51.7C14.3 51.2 12.6 50.3 10.7 51.9C8.4 53.8 10.1 56.1 10.8 55.3C10.6 56 9.8 55.9 9.7 55.6C9.7 55.6 9.7 55.6 9.6 55.6C9.3 57 6.7 56 6.5 58.9C6.5 58.9 7.1 59 7.4 58.7C7.5 58.6 7.9 58.1 8.4 58.6V58.7C7.7 58.7 7.9 59.2 7.9 59.2C8.3 58.8 9 58.9 9 59.8C9 59.9 9 59.9 9 59.8C8.6 59.3 8.2 59.7 8.2 59.7C8.5 59.7 9.1 60.2 8.5 60.8C8.5 60.8 8.4 60.9 8.4 60.8C8.3 60 7.6 60.3 7.5 60.3C7.4 60.3 6.9 60.5 6.6 60.1C6.8 60.6 6 60.6 6 60.6C5.9 60.6 5.9 60.6 6 60.5C6.3 60.3 6.6 59.9 6.1 59.7C6.1 59.7 5.5 60.3 5 59.7C5 59.6 5 59.6 5 59.6C5.1 59.6 5.8 59.7 5.7 59C5.7 58.5 5.3 56.8 6 56.3C6 56.3 6.1 56.2 6 56.2C5.3 56 5.2 55.6 5.5 55C5.5 54.9 5.6 54.9 5.6 55C5.6 56.1 7.4 55.6 7.5 54C6.5 54.2 4.9 53.9 4.9 52.4C4.9 50.9 6.9 50.1 6.9 49C6.9 48.8 6.9 48 6 48C5.3 48 4.7 48.6 4.6 49.1C4.6 49.1 4.6 49.1 4.5 49.1C4.4 49 4.4 48.4 4.7 48.1C4.7 48.1 4.7 48 4.6 48.1C4.5 48.1 4.3 48.2 4 48.2C3.3 48.3 3 48 3 47.4C3 47.1 3.1 46.9 3.1 46.8C3.1 46.8 3.1 46.7 3.2 46.8C3.3 47 3.4 47.4 4.1 47.4C4.1 47.4 5.4 47.4 5.6 47.4C7.3 47.4 7.4 48.7 7.4 49.1C7.4 50.5 5.7 51.1 5.7 52.4C5.7 52.7 5.9 53.3 6.8 53.3C7.2 53.3 7.6 53.2 7.8 53.1C7.8 53.1 8.2 50.7 9.4 49.8C9.4 49.8 10.8 50.5 12.1 49.7C13.1 49.1 13.6 48.8 14.5 49.4C15.4 50 16.2 50.7 16.3 50.7H16.5V45.3C16.1 45.2 16 45.6 16.1 45.7C16.1 45.8 16.3 45.9 16 46.4H15.9C15.9 46.3 15.8 46.1 15.7 46.1C15.6 46.1 14.9 46.6 14.4 47.1C14.4 47.1 14.1 46.1 13.3 45.9C13.7 45.8 15.6 45.4 15.6 44.6C15.6 44.3 15.9 44.3 16.1 44.3C16.1 44.3 16.4 43.5 17 43.9V44C16.8 44.1 16.6 44.3 16.6 44.6C16.8 44.5 17.3 44.4 17.9 44.3V46.1H18.6V44C19.6 43.8 20.8 43.7 22.1 43.7C24.8 43.7 27.2 44.3 27.7 44.5C27.7 44.2 27.6 44 27.3 43.9C27.3 43.9 27.3 43.9 27.3 43.8C27.9 43.4 28.2 44.2 28.2 44.2C28.4 44.2 28.7 44.3 28.7 44.5C28.7 45.3 30.6 45.8 31 45.8C30.2 46.1 29.9 47 29.9 47C29.4 46.5 28.7 46 28.6 46C28.5 46 28.4 46.2 28.4 46.3C28.4 46.3 28.4 46.3 28.3 46.3C28 45.9 28.1 45.8 28.2 45.6C28.2 45.5 28.2 45.1 27.8 45.2V50.6H28C28.1 50.6 28.9 49.9 29.8 49.3C30.7 48.7 31.2 49.1 32.2 49.6C33.6 50.3 34.9 49.7 34.9 49.7C36.1 50.5 36.5 53 36.5 53C36.7 53.1 37.1 53.2 37.5 53.2C38.4 53.2 38.6 52.7 38.6 52.3C38.6 50.9 36.9 50.3 36.9 49C36.9 48.7 37 47.3 38.7 47.3C38.9 47.3 40.2 47.3 40.2 47.3C40.8 47.3 41 46.9 41.1 46.7C41.1 46.6 41.2 46.7 41.2 46.7C41.2 46.8 41.3 47 41.3 47.3C41 48 40.7 48.3 40.1 48.3Z" fill="white"/>
<path d="M22.8 54.9H22V57H22.8V54.9Z" fill="white"/>
<path d="M22.4 52.2C22.4 52.1 22.4 52.1 22.4 52.2C22.2 52.2 21.9 51.9 22.2 51.5C22 51.4 21.8 51.3 21.6 51.3C20.8 51.3 20.1 52.2 20 52.3C19.9 52.4 19.7 52.6 19.5 52.4C19.5 52.8 19.8 52.8 19.9 52.7C19.9 53.1 20.1 53.7 20.1 53.7C20.1 53.7 19.7 54.1 19.5 54.1C19.3 54.1 19.3 53.8 19 53.8C18.9 53.8 18.8 53.8 18.8 53.9C19 53.9 19.1 54 19.1 54.2C18.9 54 18.5 54 18.5 54.5C18.7 54.3 18.9 54.4 19 54.5C18.8 54.5 18.5 54.7 18.8 55.1C18.8 55 18.8 54.8 19.1 54.8C19.4 54.8 19.5 55 19.7 54.8C19.8 55.1 20.1 55.1 20.2 55.1C20 55 20 54.9 20 54.8C20 54.6 20.4 54.4 20.5 54.4C20.6 54.4 20.7 54.5 20.9 54.5C21 54.5 21.1 54.5 21.2 54.3C20.9 54.4 20.8 54.1 20.8 53.6C20.8 52.7 21.3 52.6 22.4 52.2Z" fill="white"/>
<path d="M63.2 46C63 46 62.7 46 62.5 46C62.3 46 62.2 46 62.1 46C62 46 61.9 46 61.7 46C61.6 46 61.5 46 61.4 46C61.3 46 61.2 46 61 45.9V45.6C61.6 45.5 61.8 45.1 61.8 44.6L61.5 38.4L58.9 46L58.4 46.1L55.9 38.4L55.5 45.3L56.4 45.5V45.8C56.2 45.8 56.1 45.9 56 45.9C55.9 45.9 55.8 46 55.6 46C55.5 46 55.4 46 55.2 46C55.1 46 54.9 46 54.8 46C54.6 46 54.5 46 54.3 46C54.1 46 53.9 46 53.8 45.9V45.7C54.1 45.6 54.3 45.5 54.4 45.4C54.5 45.3 54.6 45.1 54.6 44.9L55.2 37.9L54.4 37.7V37.3C54.6 37.3 54.7 37.3 54.9 37.3C55.1 37.3 55.2 37.3 55.4 37.3C55.6 37.3 55.7 37.3 55.9 37.3C56.1 37.3 56.2 37.3 56.3 37.3H56.8L59 44L61.1 37.3H61.7C61.9 37.3 62.2 37.3 62.5 37.3C62.8 37.3 63.1 37.3 63.3 37.4V37.8L62.5 38L63.1 45.5L63.9 45.7V46C63.6 45.9 63.4 46 63.2 46Z" fill="white"/>
<path d="M67 46C66.9 46 66.8 46.1 66.6 46.1C66.5 46.1 66.3 46.1 66.2 46.1C66 46.1 65.9 46.1 65.7 46.1C65.5 46.1 65.4 46.1 65.2 46.1C65 46.1 64.8 46.1 64.7 46V45.8C64.8 45.8 64.9 45.7 65 45.7C65.1 45.7 65.2 45.6 65.2 45.5C65.3 45.5 65.3 45.4 65.4 45.3C65.4 45.2 65.5 45.1 65.5 45.1V40.5L64.6 40V39.7C64.9 39.6 65.2 39.5 65.5 39.5C65.8 39.4 66 39.4 66.2 39.4H66.6L66.5 40.1V45.3L67.3 45.5V45.8C67.2 45.9 67.1 45.9 67 46ZM66.8 37.6C66.8 37.7 66.7 37.8 66.6 37.9C66.5 38 66.4 38 66.4 38.1C66.3 38.1 66.2 38.2 66.1 38.2C66 38.2 65.9 38.2 65.8 38.2C65.7 38.2 65.6 38.1 65.6 38C65.5 37.9 65.5 37.8 65.4 37.8C65.3 37.8 65.3 37.6 65.3 37.5C65.3 37.4 65.3 37.3 65.4 37.2C65.4 37.1 65.5 37 65.6 36.9C65.7 36.8 65.8 36.8 65.8 36.7C65.8 36.6 66 36.6 66.1 36.6C66.2 36.6 66.3 36.6 66.4 36.6C66.5 36.6 66.6 36.7 66.6 36.8C66.7 36.8 66.7 36.9 66.8 37C66.8 37.1 66.9 37.2 66.9 37.3C66.8 37.4 66.8 37.5 66.8 37.6Z" fill="white"/>
<path d="M73.4 46.1C73.3 46.1 73.1 46.1 73 46.1C72.8 46.1 72.7 46.1 72.6 46V45.8C72.8 45.7 72.9 45.6 73 45.5C73.1 45.4 73.1 45.2 73.1 44.9V42.3C73.1 42 73.1 41.7 73 41.5C72.9 41.3 72.8 41.1 72.7 40.9C72.6 40.7 72.4 40.6 72.3 40.6C72.1 40.5 71.9 40.5 71.7 40.5C71.4 40.5 71.1 40.5 70.9 40.6C70.6 40.7 70.4 40.8 70.3 40.9V45.5L71.1 45.7V46C71 46 70.9 46.1 70.8 46.1C70.7 46.1 70.6 46.2 70.4 46.2C70.2 46.2 70.1 46.2 70 46.2C69.9 46.2 69.7 46.2 69.5 46.2C69.3 46.2 69.2 46.2 69 46.2C68.8 46.2 68.6 46.2 68.5 46.1V45.9C68.6 45.9 68.7 45.8 68.8 45.8C68.9 45.8 69 45.7 69 45.6C69.1 45.6 69.1 45.5 69.2 45.4C69.2 45.3 69.3 45.2 69.3 45.2V40.6L68.2 40V39.7C68.5 39.6 68.8 39.5 69.1 39.5C69.4 39.5 69.6 39.4 69.8 39.4H70.1V40.1C70.3 39.9 70.6 39.7 71 39.5C71.4 39.4 71.7 39.3 72.1 39.3C72.4 39.3 72.7 39.3 72.9 39.4C73.1 39.5 73.3 39.6 73.5 39.8C73.7 40 73.8 40.2 73.9 40.5C74 40.8 74 41.1 74 41.4V45.2L74.7 45.4V45.7C74.5 46 74 46.1 73.4 46.1Z" fill="white"/>
<path d="M78.2 46C78 46 77.9 46 77.8 46C77.7 46 77.5 46 77.4 46C77.2 46 77.1 46 76.9 46C76.7 46 76.6 46 76.4 46C76.2 46 76 46 75.9 45.9V45.7C76 45.7 76.1 45.6 76.2 45.6C76.3 45.6 76.4 45.5 76.4 45.4C76.5 45.4 76.5 45.3 76.6 45.2C76.6 45.1 76.7 45 76.7 45V40.4L75.7 40V39.7C76 39.6 76.3 39.5 76.6 39.5C76.9 39.4 77.1 39.4 77.3 39.4H77.7L77.6 40.1V45.3L78.4 45.5V45.8C78.4 45.9 78.3 45.9 78.2 46ZM77.9 37.6C77.9 37.7 77.8 37.8 77.7 37.9C77.6 38 77.5 38 77.5 38.1C77.4 38.1 77.3 38.2 77.2 38.2C77.1 38.2 77 38.2 76.9 38.2C76.8 38.2 76.7 38.1 76.7 38C76.6 37.9 76.6 37.8 76.5 37.8C76.4 37.8 76.4 37.6 76.4 37.5C76.4 37.4 76.4 37.3 76.5 37.2C76.5 37.1 76.6 37 76.7 36.9C76.8 36.8 76.9 36.8 76.9 36.7C76.9 36.6 77.1 36.6 77.2 36.6C77.3 36.6 77.4 36.6 77.5 36.6C77.6 36.6 77.7 36.7 77.7 36.8C77.8 36.8 77.8 36.9 77.9 37C77.9 37.1 78 37.2 78 37.3C78 37.4 77.9 37.5 77.9 37.6Z" fill="white"/>
<path d="M83.5 44.9C83.4 45.1 83.2 45.4 83 45.5C82.8 45.7 82.5 45.8 82.2 46C81.9 46.1 81.5 46.2 81.2 46.2C80.6 46.2 80.2 46.1 79.9 45.9C79.6 45.7 79.5 45.4 79.5 45.1C79.5 45 79.5 44.9 79.5 44.8C79.5 44.7 79.6 44.6 79.6 44.5C79.9 44.8 80.2 45 80.5 45.2C80.8 45.4 81.2 45.4 81.5 45.4C81.9 45.4 82.2 45.3 82.4 45.2C82.6 45 82.7 44.8 82.7 44.6C82.7 44.5 82.7 44.4 82.6 44.3C82.6 44.2 82.5 44.1 82.4 44C82.3 43.9 82.2 43.8 82 43.7C81.9 43.6 81.7 43.5 81.4 43.4L80.7 43C80.3 42.8 80 42.6 79.8 42.3C79.6 42 79.5 41.7 79.5 41.3C79.5 41 79.6 40.8 79.7 40.5C79.8 40.3 80 40 80.2 39.9C80.4 39.7 80.6 39.6 81 39.5C81.3 39.4 81.6 39.3 82 39.3C82.3 39.3 82.5 39.3 82.7 39.4C82.9 39.4 83.1 39.5 83.2 39.6C83.3 39.7 83.4 39.8 83.5 39.9C83.6 40 83.6 40.1 83.6 40.3C83.6 40.4 83.6 40.5 83.6 40.6C83.6 40.7 83.6 40.8 83.5 40.9C83.3 40.7 83 40.6 82.7 40.5C82.4 40.4 82.1 40.3 81.9 40.3C81.7 40.3 81.5 40.3 81.3 40.4C81.1 40.4 81 40.5 80.9 40.6C80.8 40.7 80.7 40.8 80.7 40.9C80.7 41 80.6 41.1 80.6 41.2C80.6 41.3 80.6 41.4 80.6 41.5C80.6 41.6 80.7 41.7 80.8 41.8C80.9 41.9 81 42 81.1 42C81.2 42.1 81.4 42.2 81.6 42.2L82.3 42.5C82.5 42.6 82.7 42.7 82.9 42.8C83.1 42.9 83.2 43 83.3 43.2C83.4 43.4 83.5 43.5 83.5 43.7C83.5 43.9 83.6 44.1 83.6 44.2C83.6 44.4 83.6 44.7 83.5 44.9Z" fill="white"/>
<path d="M86.8 46.1C86.2 46.1 85.8 45.9 85.6 45.6C85.3 45.3 85.2 44.8 85.2 44.1C85.2 43.8 85.2 43.4 85.2 43.1C85.2 42.7 85.2 42.4 85.2 42.1V40.3H84.4V39.8L85.9 38.3H86.3L86.2 39.5H88L87.9 40.2H86.1V41.9C86.1 42.2 86.1 42.5 86.1 42.7C86.1 43 86.1 43.2 86.1 43.5C86.1 43.8 86.1 44 86.2 44.2C86.2 44.4 86.3 44.5 86.4 44.7C86.5 44.8 86.6 44.9 86.7 44.9C86.8 44.9 86.9 45 87 45C87.2 45 87.4 45 87.6 44.9C87.8 44.8 87.9 44.7 88 44.6H88.1C88.3 45.7 87.8 46.1 86.8 46.1Z" fill="white"/>
<path d="M94.2 42.8H90.1C90.1 43.2 90.2 43.5 90.3 43.8C90.4 44.1 90.6 44.3 90.7 44.6C90.8 44.9 91.1 45 91.4 45.1C91.7 45.2 91.9 45.3 92.2 45.3C92.4 45.3 92.5 45.3 92.7 45.3C92.9 45.3 93 45.2 93.2 45.2C93.4 45.2 93.5 45.1 93.7 45C93.9 44.9 94 44.8 94.1 44.8C94.1 44.8 94.1 44.9 94.1 45C94.1 45.1 94.1 45.1 94.1 45.2C94.1 45.4 94 45.5 93.9 45.7C93.8 45.8 93.6 46 93.4 46.1C93.2 46.2 93 46.3 92.7 46.4C92.4 46.5 92.1 46.5 91.7 46.5C91.3 46.5 90.9 46.4 90.6 46.3C90.2 46.1 89.9 45.9 89.7 45.7C89.4 45.4 89.2 45.1 89.1 44.7C89 44.3 88.9 43.9 88.9 43.4C88.9 42.8 89 42.3 89.1 41.8C89.3 41.3 89.5 41 89.8 40.6C90.1 40.3 90.4 40.1 90.7 39.9C91 39.7 91.4 39.7 91.8 39.7C92.2 39.7 92.5 39.8 92.8 39.9C93.1 40 93.3 40.2 93.5 40.4C93.7 40.6 93.9 40.9 94 41.2C94.1 41.5 94.2 41.9 94.2 42.3C94.2 42.4 94.2 42.6 94.2 42.7C94.2 42.4 94.2 42.6 94.2 42.8ZM93 41.2C92.9 41 92.8 40.7 92.7 40.6C92.6 40.4 92.4 40.3 92.3 40.2C92.1 40.1 91.9 40.1 91.7 40.1C91.5 40.1 91.3 40.2 91.1 40.3C90.9 40.4 90.7 40.5 90.6 40.7C90.4 40.9 90.3 41.1 90.2 41.3C90.1 41.5 90.1 41.8 90.1 42.1H93C93.1 41.7 93.1 41.4 93 41.2Z" fill="white"/>
<path d="M99.4 40.3C99.4 40.5 99.3 40.6 99.2 40.7C99.1 40.6 98.9 40.5 98.8 40.5C98.7 40.5 98.5 40.4 98.4 40.4C98 40.4 97.6 40.6 97.2 41V45.4L98.1 45.6V45.9C98 45.9 97.9 46 97.7 46C97.6 46 97.5 46.1 97.3 46.1C97.1 46.1 97 46.1 96.9 46.1C96.7 46.1 96.6 46.1 96.4 46.1C96.2 46.1 96 46.1 95.8 46.1C95.6 46.1 95.4 46.1 95.3 46V45.8C95.4 45.8 95.5 45.7 95.6 45.7C95.7 45.7 95.8 45.6 95.8 45.5C95.9 45.5 95.9 45.4 96 45.3C96 45.2 96.1 45.1 96.1 45.1V40.5L95.1 40V39.7C95.4 39.6 95.7 39.5 96 39.5C96.3 39.5 96.5 39.4 96.7 39.4H97V40.4L97.4 40C97.6 39.8 97.8 39.6 98 39.5C98.2 39.4 98.4 39.3 98.6 39.3C99.1 39.3 99.3 39.5 99.3 39.9C99.4 40.1 99.4 40.2 99.4 40.3Z" fill="white"/>
<path d="M102.4 46C102.3 46 102.2 46.1 102 46.1C101.9 46.1 101.7 46.1 101.6 46.1C101.4 46.1 101.3 46.1 101.1 46.1C100.9 46.1 100.8 46.1 100.6 46.1C100.4 46.1 100.2 46.1 100.1 46V45.8C100.2 45.8 100.3 45.7 100.4 45.7C100.5 45.7 100.6 45.6 100.6 45.5C100.7 45.5 100.7 45.4 100.8 45.3C100.8 45.2 100.9 45.1 100.9 45.1V40.5L100 40V39.7C100.3 39.6 100.6 39.5 100.9 39.5C101.2 39.4 101.4 39.4 101.6 39.4H102L101.9 40.1V45.3L102.7 45.5V45.8C102.6 45.9 102.5 45.9 102.4 46ZM102.2 37.6C102.2 37.7 102.1 37.8 102 37.9C101.9 38 101.8 38 101.8 38.1C101.7 38.1 101.6 38.2 101.5 38.2C101.4 38.2 101.3 38.2 101.2 38.2C101.1 38.2 101 38.1 101 38C100.9 37.9 100.9 37.8 100.8 37.8C100.7 37.8 100.7 37.6 100.7 37.5C100.7 37.4 100.7 37.3 100.8 37.2C100.8 37.1 100.9 37 101 36.9C101.1 36.8 101.2 36.8 101.2 36.7C101.2 36.6 101.4 36.6 101.5 36.6C101.6 36.6 101.7 36.6 101.8 36.6C101.9 36.6 102 36.7 102 36.8C102.1 36.8 102.1 36.9 102.2 37C102.2 37.1 102.3 37.2 102.3 37.3C102.2 37.4 102.2 37.5 102.2 37.6Z" fill="white"/>
<path d="M108.9 42.8H104.8C104.8 43.2 104.9 43.5 105 43.8C105.1 44.1 105.3 44.3 105.4 44.6C105.5 44.9 105.8 45 106.1 45.1C106.4 45.2 106.6 45.3 106.9 45.3C107.1 45.3 107.2 45.3 107.4 45.3C107.6 45.3 107.7 45.2 107.9 45.2C108.1 45.2 108.2 45.1 108.4 45C108.6 44.9 108.7 44.8 108.8 44.8C108.8 44.8 108.8 44.9 108.8 45C108.8 45.1 108.8 45.1 108.8 45.2C108.8 45.4 108.7 45.5 108.6 45.7C108.5 45.8 108.3 46 108.1 46.1C107.9 46.2 107.7 46.3 107.4 46.4C107.1 46.5 106.8 46.5 106.4 46.5C106 46.5 105.6 46.4 105.3 46.3C104.9 46.1 104.6 45.9 104.4 45.7C104.1 45.4 103.9 45.1 103.8 44.7C103.7 44.3 103.6 43.9 103.6 43.4C103.6 42.8 103.7 42.3 103.8 41.8C104 41.3 104.2 41 104.5 40.6C104.8 40.3 105.1 40.1 105.4 39.9C105.7 39.7 106.1 39.7 106.5 39.7C106.9 39.7 107.2 39.8 107.5 39.9C107.8 40 108 40.2 108.2 40.4C108.4 40.6 108.6 40.9 108.7 41.2C108.8 41.5 108.9 41.9 108.9 42.3C108.9 42.4 108.9 42.6 108.9 42.7C108.9 42.4 108.9 42.6 108.9 42.8ZM107.7 41.2C107.6 41 107.5 40.7 107.4 40.6C107.3 40.4 107.1 40.3 107 40.2C106.8 40.1 106.6 40.1 106.4 40.1C106.2 40.1 106 40.2 105.8 40.3C105.6 40.4 105.4 40.5 105.3 40.7C105.1 40.9 105 41.1 104.9 41.3C104.8 41.5 104.8 41.8 104.8 42.1H107.7C107.8 41.7 107.8 41.4 107.7 41.2Z" fill="white"/>
<path d="M117.9 40.1L115.5 46.2H115L112.7 40.2L112.1 39.8V39.5H114.7V39.8L113.9 40.1L115.4 44.4L116.9 40.1L116.1 39.7V39.4H118.2V39.7L117.9 40.1Z" fill="white"/>
<path d="M123.4 45.8C123.2 45.9 123.1 46 122.9 46.1C122.8 46 122.7 45.9 122.5 45.8C122.4 45.7 122.3 45.6 122.2 45.4C122.1 45.5 122 45.6 121.9 45.7C121.7 45.8 121.6 45.9 121.5 45.9C121.3 46 121.2 46 121 46C120.8 46 120.6 46 120.5 46C120.2 46 120 46 119.8 45.9C119.6 45.8 119.4 45.7 119.2 45.6C119 45.5 118.9 45.3 118.8 45.1C118.7 44.9 118.7 44.7 118.7 44.5C118.7 44.2 118.8 43.9 118.9 43.7C119.1 43.4 119.3 43.2 119.6 43C119.9 42.8 120.3 42.6 120.7 42.5C121.1 42.4 121.6 42.3 122.2 42.3V42C122.2 41.6 122.2 41.3 122.1 41.1C122 40.9 122 40.7 121.9 40.6C121.8 40.5 121.7 40.4 121.5 40.3C121.3 40.3 121.2 40.2 120.9 40.2C120.5 40.2 120.2 40.3 119.8 40.4C119.5 40.6 119.1 40.8 118.8 41.1C118.8 41 118.8 40.8 118.8 40.7C118.8 40.5 118.8 40.3 118.9 40.1C119 39.9 119.1 39.8 119.3 39.7C119.5 39.6 119.7 39.5 120 39.4C120.3 39.3 120.6 39.3 121 39.3C121.3 39.3 121.7 39.3 121.9 39.4C122.2 39.5 122.4 39.6 122.6 39.8C122.8 40 122.9 40.2 123 40.4C123.1 40.6 123.2 40.9 123.2 41.2C123.2 41.3 123.2 41.4 123.2 41.5C123.2 41.6 123.2 41.7 123.2 41.9C123.2 42 123.2 42.2 123.2 42.3C123.2 42.4 123.2 42.5 123.2 42.6V44.8C123.3 44.9 123.3 45 123.4 45.2C123.5 45.4 123.6 45.4 123.7 45.5C123.8 45.6 123.6 45.7 123.4 45.8ZM122.3 43C121.9 43 121.6 43 121.3 43.1C121 43.2 120.7 43.3 120.6 43.4C120.4 43.5 120.2 43.7 120.1 43.8C120 44 119.9 44.1 119.9 44.3C119.9 44.6 120 44.8 120.2 45C120.4 45.2 120.6 45.2 121 45.2C121.1 45.2 121.2 45.2 121.3 45.2C121.4 45.2 121.5 45.2 121.7 45.1C121.8 45.1 121.9 45 122 45C122.1 45 122.2 44.9 122.3 44.9V43Z" fill="white"/>
<path d="M130 46.1C129.9 46.1 129.7 46.1 129.6 46.1C129.5 46.1 129.3 46.1 129.2 46V45.8C129.4 45.7 129.5 45.6 129.6 45.5C129.7 45.4 129.7 45.2 129.7 44.9V42.3C129.7 42 129.7 41.7 129.6 41.5C129.5 41.3 129.4 41.1 129.3 40.9C129.2 40.7 129 40.6 128.9 40.6C128.7 40.5 128.5 40.5 128.3 40.5C128 40.5 127.7 40.5 127.5 40.6C127.2 40.7 127 40.8 126.9 40.9V45.5L127.7 45.7V46C127.6 46 127.5 46.1 127.4 46.1C127.3 46.1 127.2 46.2 127 46.2C126.8 46.2 126.7 46.2 126.6 46.2C126.5 46.2 126.3 46.2 126.1 46.2C125.9 46.2 125.8 46.2 125.6 46.2C125.4 46.2 125.2 46.2 125.1 46.1V45.9C125.2 45.9 125.3 45.8 125.4 45.8C125.5 45.8 125.6 45.7 125.6 45.6C125.7 45.6 125.7 45.5 125.8 45.4C125.8 45.3 125.9 45.2 125.9 45.2V40.6L125 40.2V39.9C125.3 39.8 125.6 39.7 125.9 39.7C126.2 39.7 126.4 39.6 126.6 39.6H126.9V40.3C127.1 40.1 127.4 39.9 127.8 39.7C128.2 39.6 128.5 39.5 128.9 39.5C129.2 39.5 129.5 39.5 129.7 39.6C129.9 39.7 130.1 39.8 130.3 40C130.5 40.2 130.6 40.4 130.7 40.7C130.8 41 130.8 41.3 130.8 41.6V45.4L131.5 45.6V45.9C131.1 46 130.6 46.1 130 46.1Z" fill="white"/>
<path d="M142.6 42.7C142.5 43.1 142.3 43.5 142.1 43.9C141.9 44.3 141.6 44.6 141.3 44.9C141 45.2 140.7 45.4 140.3 45.6C139.9 45.8 139.5 45.9 139.1 46C138.7 46.1 138.2 46.2 137.8 46.2C137.5 46.2 137.3 46.2 137.1 46.2C136.9 46.2 136.7 46.2 136.5 46.2C136.3 46.2 136.1 46.2 135.9 46.2C135.7 46.2 135.5 46.2 135.3 46.1V45.8C135.5 45.7 135.7 45.6 135.9 45.5C136 45.3 136.1 45.1 136.1 44.8V38.1L135.2 37.8V37.5C135.4 37.5 135.6 37.4 135.9 37.4C136.1 37.4 136.3 37.4 136.5 37.3C136.7 37.3 136.9 37.3 137.2 37.3C137.4 37.3 137.7 37.3 138 37.3C138.7 37.3 139.4 37.4 140 37.6C140.6 37.8 141.1 38 141.5 38.4C141.9 38.7 142.2 39.2 142.5 39.7C142.8 40.2 142.8 40.8 142.8 41.5C142.8 41.8 142.7 42.2 142.6 42.7ZM141.1 40C140.9 39.6 140.7 39.2 140.4 38.9C140.1 38.6 139.7 38.4 139.3 38.2C138.9 38 138.4 38 137.9 38C137.7 38 137.4 38 137.2 38V45.2C137.3 45.2 137.4 45.2 137.5 45.2C137.6 45.2 137.7 45.2 137.8 45.2C138.3 45.2 138.7 45.1 139.2 45C139.6 44.8 140 44.6 140.3 44.3C140.6 44 140.9 43.6 141.1 43.1C141.3 42.6 141.4 42.1 141.4 41.5C141.4 40.9 141.3 40.4 141.1 40Z" fill="white"/>
<path d="M149.1 42.8H145C145 43.2 145.1 43.5 145.1 43.8C145.2 44.1 145.4 44.3 145.5 44.6C145.7 44.8 145.9 45 146.1 45.1C146.3 45.2 146.6 45.3 146.9 45.3C147.1 45.3 147.2 45.3 147.4 45.3C147.6 45.3 147.7 45.2 147.9 45.2C148.1 45.2 148.2 45.1 148.4 45C148.5 44.9 148.7 44.8 148.8 44.8C148.8 44.8 148.8 44.9 148.8 45C148.8 45.1 148.8 45.1 148.8 45.2C148.8 45.4 148.7 45.5 148.6 45.7C148.5 45.8 148.3 46 148.1 46.1C147.9 46.2 147.7 46.3 147.4 46.4C147.1 46.5 146.8 46.5 146.4 46.5C146 46.5 145.6 46.4 145.3 46.3C144.9 46.1 144.7 45.9 144.4 45.7C144.1 45.4 143.9 45.1 143.8 44.7C143.7 44.3 143.6 43.9 143.6 43.4C143.6 42.8 143.7 42.3 143.8 41.8C144 41.3 144.2 41 144.5 40.6C144.8 40.3 145.1 40.1 145.4 39.9C145.7 39.7 146.1 39.7 146.5 39.7C146.9 39.7 147.2 39.8 147.5 39.9C147.8 40 148 40.2 148.2 40.4C148.4 40.6 148.6 40.9 148.7 41.2C148.8 41.5 148.9 41.9 148.9 42.3C148.9 42.4 148.9 42.6 148.9 42.7C149.1 42.4 149.1 42.6 149.1 42.8ZM147.9 41.2C147.8 41 147.7 40.7 147.6 40.6C147.5 40.4 147.3 40.3 147.2 40.2C147 40.1 146.8 40.1 146.6 40.1C146.4 40.1 146.2 40.2 146 40.3C145.8 40.4 145.6 40.5 145.5 40.7C145.4 40.9 145.2 41.1 145.1 41.3C145 41.5 145 41.8 145 42.1H147.9C148 41.7 148 41.4 147.9 41.2Z" fill="white"/>
<path d="M154.9 37C154.9 37.1 154.9 37.2 154.8 37.2C154.7 37.2 154.5 37.1 154.4 37.1C154.3 37.1 154.1 37 153.9 37C153.7 37 153.6 37 153.4 36.9C153.2 36.9 153.1 36.9 153 36.9C152.9 36.9 152.7 36.9 152.6 37C152.5 37.1 152.4 37.2 152.3 37.3C152.2 37.4 152.1 37.6 152.1 37.8C152 38 152 38.2 152 38.4C152 38.5 152 38.5 152 38.6C152 38.7 152 38.8 152 38.9C152 39 152 39.1 152 39.3C152 39.4 152 39.5 152 39.6H153.7L153.5 40.3H152V45.3L152.9 45.5V45.8C152.8 45.8 152.7 45.9 152.5 45.9C152.4 45.9 152.3 46 152.1 46C152 46 151.8 46 151.7 46C151.5 46 151.4 46 151.2 46C151 46 150.9 46 150.7 46C150.5 46 150.3 46 150.2 45.9V45.7C150.3 45.7 150.4 45.6 150.5 45.6C150.6 45.6 150.7 45.5 150.7 45.4C150.8 45.4 150.8 45.3 150.9 45.2C150.9 45.1 151 45 151 45V40.4H150.2V39.9L151 39.6V38.6C151 38.2 151.1 37.9 151.2 37.6C151.3 37.3 151.5 37 151.7 36.8C151.9 36.6 152.2 36.4 152.5 36.3C152.8 36.2 153.2 36.1 153.6 36.1C154.1 36.1 154.4 36.2 154.6 36.3C154.8 36.4 154.9 36.6 154.9 36.8C154.9 36.8 154.9 36.9 154.9 37Z" fill="white"/>
<path d="M159.5 42.8H155.4C155.4 43.2 155.5 43.5 155.5 43.8C155.6 44.1 155.8 44.3 155.9 44.6C156.1 44.8 156.3 45 156.5 45.1C156.7 45.2 157 45.3 157.3 45.3C157.5 45.3 157.6 45.3 157.8 45.3C158 45.3 158.1 45.2 158.3 45.2C158.5 45.2 158.6 45.1 158.8 45C158.9 44.9 159.1 44.8 159.2 44.8C159.2 44.8 159.2 44.9 159.2 45C159.2 45.1 159.2 45.1 159.2 45.2C159.2 45.4 159.1 45.5 159 45.7C158.9 45.8 158.7 46 158.5 46.1C158.3 46.2 158.1 46.3 157.8 46.4C157.5 46.5 157.2 46.5 156.8 46.5C156.4 46.5 156 46.4 155.7 46.3C155.3 46.1 155.1 45.9 154.8 45.7C154.5 45.4 154.3 45.1 154.2 44.7C154.1 44.3 154 43.9 154 43.4C154 42.8 154.1 42.3 154.2 41.8C154.4 41.3 154.6 41 154.9 40.6C155.2 40.3 155.5 40.1 155.8 39.9C156.1 39.7 156.5 39.7 156.9 39.7C157.3 39.7 157.6 39.8 157.9 39.9C158.2 40 158.4 40.2 158.6 40.4C158.8 40.6 159 40.9 159.1 41.2C159.2 41.5 159.3 41.9 159.3 42.3C159.3 42.4 159.3 42.6 159.3 42.7C159.5 42.4 159.5 42.6 159.5 42.8ZM158.3 41.2C158.2 41 158.1 40.7 158 40.6C157.9 40.4 157.7 40.3 157.6 40.2C157.4 40.1 157.2 40.1 157 40.1C156.8 40.1 156.6 40.2 156.4 40.3C156.2 40.4 156 40.5 155.9 40.7C155.8 40.9 155.6 41.1 155.5 41.3C155.4 41.5 155.4 41.8 155.4 42.1H158.3C158.4 41.7 158.3 41.4 158.3 41.2Z" fill="white"/>
<path d="M165.6 46.1C165.5 46.1 165.3 46.1 165.2 46.1C165.1 46.1 164.9 46.1 164.8 46V45.8C165 45.7 165.1 45.6 165.2 45.5C165.3 45.4 165.3 45.2 165.3 44.9V42.3C165.3 42 165.3 41.7 165.2 41.5C165.1 41.3 165 41.1 164.9 40.9C164.8 40.7 164.6 40.6 164.5 40.6C164.3 40.5 164.1 40.5 163.9 40.5C163.6 40.5 163.3 40.5 163.1 40.6C162.8 40.7 162.6 40.8 162.5 40.9V45.5L163.3 45.7V46C163.2 46 163.1 46.1 163 46.1C162.9 46.1 162.8 46.2 162.6 46.2C162.4 46.2 162.3 46.2 162.2 46.2C162.1 46.2 161.9 46.2 161.7 46.2C161.5 46.2 161.4 46.2 161.2 46.2C161 46.2 160.8 46.2 160.7 46.1V45.9C160.8 45.9 160.9 45.8 161 45.8C161.1 45.8 161.2 45.7 161.2 45.6C161.3 45.6 161.3 45.5 161.4 45.4C161.4 45.3 161.5 45.2 161.5 45.2V40.6L160.6 40.2V39.9C160.9 39.8 161.2 39.7 161.5 39.7C161.8 39.7 162 39.6 162.2 39.6H162.5V40.3C162.7 40.1 163 39.9 163.4 39.7C163.8 39.6 164.1 39.5 164.5 39.5C164.8 39.5 165.1 39.5 165.3 39.6C165.5 39.7 165.7 39.8 165.9 40C166.1 40.2 166.2 40.4 166.3 40.7C166.4 41 166.4 41.3 166.4 41.6V45.4L167.1 45.6V45.9C166.7 46 166.2 46.1 165.6 46.1Z" fill="white"/>
<path d="M172 44.9C171.9 45.1 171.7 45.4 171.5 45.5C171.3 45.7 171 45.8 170.7 46C170.4 46.1 170 46.2 169.7 46.2C169.1 46.2 168.7 46.1 168.4 45.9C168.1 45.7 168 45.4 168 45.1C168 45 168 44.9 168 44.8C168 44.7 168.1 44.6 168.1 44.5C168.4 44.8 168.7 45 169 45.2C169.3 45.4 169.6 45.4 170 45.4C170.4 45.4 170.7 45.3 170.9 45.2C171.1 45 171.2 44.8 171.2 44.6C171.2 44.5 171.2 44.4 171.1 44.3C171.1 44.2 171 44.1 170.9 44C170.8 43.9 170.7 43.8 170.5 43.7C170.4 43.6 170.2 43.5 169.9 43.4L169.2 43.1C168.8 42.9 168.5 42.7 168.3 42.4C168.1 42.1 168 41.8 168 41.4C168 41.1 168.1 40.9 168.2 40.6C168.3 40.4 168.5 40.1 168.7 40C168.9 39.8 169.1 39.7 169.5 39.6C169.8 39.5 170.1 39.4 170.5 39.4C170.8 39.4 171 39.4 171.2 39.5C171.4 39.5 171.6 39.6 171.7 39.7C171.8 39.8 171.9 39.9 172 40C172.1 40.1 172.1 40.2 172.1 40.4C172.1 40.5 172.1 40.6 172.1 40.7C172.1 40.8 172.1 40.9 172 41C171.8 40.8 171.5 40.7 171.2 40.6C170.9 40.5 170.6 40.4 170.4 40.4C170.2 40.4 170 40.4 169.8 40.5C169.6 40.6 169.5 40.6 169.4 40.7C169.3 40.8 169.2 40.9 169.2 41C169.2 41.1 169.1 41.2 169.1 41.3C169.1 41.4 169.1 41.5 169.1 41.6C169.1 41.7 169.2 41.8 169.3 41.9C169.4 42 169.5 42.1 169.6 42.1C169.7 42.2 169.9 42.3 170.1 42.3L170.8 42.6C171 42.7 171.2 42.8 171.4 42.9C171.6 43 171.7 43.1 171.8 43.3C171.9 43.5 172 43.6 172 43.8C172 44 172.1 44.2 172.1 44.3C172.2 44.4 172.1 44.7 172 44.9Z" fill="white"/>
<path d="M175.4 46C175.3 46 175.2 46.1 175 46.1C174.9 46.1 174.7 46.1 174.6 46.1C174.5 46.1 174.3 46.1 174.1 46.1C174 46.1 173.8 46.1 173.6 46.1C173.4 46.1 173.2 46.1 173.1 46V45.8C173.2 45.8 173.3 45.7 173.4 45.7C173.5 45.7 173.6 45.6 173.6 45.5C173.7 45.5 173.7 45.4 173.8 45.3C173.8 45.2 173.9 45.1 173.9 45.1V40.5L173 40V39.7C173.3 39.6 173.6 39.5 173.9 39.5C174.2 39.4 174.4 39.4 174.6 39.4H175L174.9 40.1V45.3L175.7 45.5V45.8C175.6 45.9 175.5 45.9 175.4 46ZM175.2 37.6C175.2 37.7 175.1 37.8 175 37.9C174.9 38 174.9 38 174.8 38.1C174.7 38.1 174.6 38.2 174.5 38.2C174.4 38.2 174.3 38.2 174.2 38.2C174.1 38.2 174 38.1 174 38C173.9 37.9 173.9 37.8 173.9 37.8C173.9 37.8 173.8 37.6 173.8 37.5C173.8 37.4 173.8 37.3 173.9 37.2C173.9 37.1 174 37 174 36.9C174.1 36.8 174.1 36.8 174.2 36.7C174.3 36.6 174.4 36.6 174.5 36.6C174.6 36.6 174.7 36.6 174.8 36.6C174.9 36.6 175 36.7 175 36.8C175.1 36.8 175.1 36.9 175.1 37C175.1 37.1 175.2 37.2 175.2 37.3C175.2 37.4 175.2 37.5 175.2 37.6Z" fill="white"/>
<path d="M181.9 42.8H177.8C177.8 43.2 177.9 43.5 177.9 43.8C178 44.1 178.2 44.3 178.3 44.6C178.5 44.8 178.7 45 178.9 45.1C179.1 45.2 179.4 45.3 179.7 45.3C179.9 45.3 180 45.3 180.2 45.3C180.4 45.3 180.5 45.2 180.7 45.2C180.9 45.2 181 45.1 181.2 45C181.3 44.9 181.5 44.8 181.6 44.8C181.6 44.8 181.6 44.9 181.6 45C181.6 45.1 181.6 45.1 181.6 45.2C181.6 45.4 181.5 45.5 181.4 45.7C181.3 45.8 181.1 46 180.9 46.1C180.7 46.2 180.5 46.3 180.2 46.4C179.9 46.5 179.6 46.5 179.2 46.5C178.8 46.5 178.4 46.4 178.1 46.3C177.7 46.1 177.5 45.9 177.2 45.7C176.9 45.4 176.7 45.1 176.6 44.7C176.5 44.3 176.4 43.9 176.4 43.4C176.4 42.8 176.5 42.3 176.6 41.8C176.8 41.3 177 41 177.3 40.6C177.6 40.3 177.9 40.1 178.2 39.9C178.5 39.7 178.9 39.7 179.3 39.7C179.7 39.7 180 39.8 180.3 39.9C180.6 40 180.8 40.2 181 40.4C181.2 40.6 181.4 40.9 181.5 41.2C181.6 41.5 181.7 41.9 181.7 42.3C181.7 42.4 181.7 42.6 181.7 42.7C181.9 42.4 181.9 42.6 181.9 42.8ZM180.7 41.2C180.6 41 180.5 40.7 180.4 40.6C180.3 40.4 180.1 40.3 180 40.2C179.8 40.1 179.6 40.1 179.4 40.1C179.2 40.1 179 40.2 178.8 40.3C178.6 40.4 178.4 40.5 178.3 40.7C178.2 40.9 178 41.1 177.9 41.3C177.8 41.5 177.8 41.8 177.8 42.1H180.7C180.8 41.7 180.8 41.4 180.7 41.2Z" fill="white"/>
</svg>
