<svg width="125" height="39" viewBox="0 0 125 39" fill="none" xmlns="http://www.w3.org/2000/svg">
<g clip-path="url(#clip0_13_105)">
<path d="M105.773 39C100.465 39 96.1601 34.6388 96.1601 29.2595V9.77838C101.469 9.77838 105.773 14.1396 105.773 19.5189V29.2595C111.082 29.2595 115.387 24.8982 115.387 19.5189V9.77838H125V19.5189C125 30.2775 116.391 39 105.77 39H105.773Z" fill="white"/>
<path d="M67.3134 29.2595C67.3134 34.6388 71.618 39 76.9267 39V19.5189H86.54V9.77838H76.9267C76.9267 4.39563 72.6221 0.0378418 67.3134 0.0378418V29.2595Z" fill="white"/>
<path d="M38.4701 19.5189H48.0868C48.0868 24.8982 43.7822 29.2595 38.4701 29.2595V19.5189ZM57.6967 0.0378418C52.3881 0.0378418 48.0834 4.39907 48.0834 9.77838H38.4701C33.1581 9.77838 28.8535 14.1396 28.8535 19.5189V29.2595C28.8535 34.6388 33.1581 39 38.4701 39C49.0909 39 57.7001 30.2775 57.7001 19.5189V0.0378418H57.6967Z" fill="white"/>
<path d="M9.61669 29.2216C9.61669 34.6009 13.9213 38.9622 19.23 38.9622V29.2216C19.23 23.8423 14.9254 19.4811 9.6133 19.4811H0V29.2216H9.61669Z" fill="white"/>
<path d="M9.6167 0C9.6167 5.37931 13.9213 9.74054 19.23 9.74054V0H9.6167Z" fill="white"/>
</g>
<defs>
<clipPath id="clip0_13_105">
<rect width="125" height="39" fill="white"/>
</clipPath>
</defs>
</svg>
