<svg width="405" height="143" viewBox="0 0 405 143" fill="none" xmlns="http://www.w3.org/2000/svg">
<g clip-path="url(#clip0_207_2)">
<path d="M119.434 139.629V3.46503H83.25V40.621C83.25 51.707 83.449 69.801 84.422 75.828C81.5 70.183 69.442 52.098 63.219 43.734L33.266 3.46503H0V139.629H36.184V98.004C36.184 86.914 35.989 68.824 35.016 62.793C38.516 68.824 50.184 86.332 56.215 94.699L88.699 139.629H119.434Z" fill="white"/>
<path d="M404.891 97.809C404.891 72.329 389.719 61.825 355.485 53.653C337.977 49.567 333.126 47.235 333.126 42.173C333.126 37.31 335.845 33.81 347.126 33.81C360.931 33.81 372.985 38.482 385.056 46.65L403.345 17.084C388.938 6.965 372.211 1.328 349.07 1.328C316.187 1.328 295.379 18.64 295.379 44.312C295.379 71.546 311.141 80.496 344.008 88.078C362.289 92.363 367.156 95.473 367.156 100.527C367.156 106.949 362.875 109.285 349.453 109.285C336.812 109.285 319.5 102.473 309.578 95.676L291.297 125.231C305.496 134.567 326.703 141.77 348.672 141.77C381.359 141.77 404.891 128.926 404.891 97.809Z" fill="white"/>
<path fill-rule="evenodd" clip-rule="evenodd" d="M174.758 71.258C174.758 51.953 190.406 36.301 209.711 36.301C229.02 36.301 244.672 51.953 244.672 71.258C244.672 90.567 229.02 106.215 209.711 106.215C190.406 106.215 174.758 90.566 174.758 71.258ZM138.453 71.258C138.453 31.902 170.355 0 209.711 0C249.067 0 280.973 31.902 280.973 71.258C280.973 110.614 249.067 142.52 209.711 142.52C170.355 142.52 138.453 110.613 138.453 71.258Z" fill="white"/>
</g>
<defs>
<clipPath id="clip0_207_2">
<rect width="404.891" height="142.52" fill="white"/>
</clipPath>
</defs>
</svg>
