<svg width="153" height="62" viewBox="0 0 153 62" fill="none" xmlns="http://www.w3.org/2000/svg">
<g clip-path="url(#clip0_13_91)">
<path d="M86.1762 1.37677V16.2298C86.1762 16.91 85.6115 17.3636 85.0467 17.3636C84.3691 17.3636 83.9173 16.7967 83.9173 16.2298V1.37677C83.9173 0.696485 84.482 0.242959 85.0467 0.242959C85.7244 0.242959 86.1762 0.809867 86.1762 1.37677ZM63.3615 4.77822H59.9732V1.37677C59.9732 0.696485 59.5214 0.242959 58.8438 0.129578C58.1661 0.242959 57.6014 0.696485 57.6014 1.37677V16.1164C57.6014 16.7967 58.0532 17.2502 58.7308 17.3636C59.4085 17.3636 59.9732 16.91 59.9732 16.2298V7.04585H63.3615C64.0392 7.04585 64.491 6.47895 64.491 5.91204C64.491 5.23175 63.9262 4.77822 63.3615 4.77822ZM76.576 11.1276C76.576 8.6332 74.8818 6.81909 72.6229 6.81909C70.364 6.81909 68.5569 8.6332 68.5569 11.1276C68.5569 13.622 70.364 15.4361 72.6229 15.4361C74.8818 15.4361 76.576 13.622 76.576 11.1276ZM72.51 17.5903C68.8958 17.5903 66.2981 14.529 66.2981 11.0142C66.2981 7.49938 68.8958 4.43808 72.51 4.43808C74.0912 4.43808 75.5595 5.11837 76.576 6.25218V5.91204C76.576 5.23175 77.1407 4.77822 77.7054 4.77822C78.3831 4.77822 78.8348 5.34513 78.8348 5.91204V16.2298C78.8348 16.91 78.2701 17.3636 77.7054 17.3636C77.0277 17.3636 76.576 16.7967 76.576 16.2298V15.8896C75.5595 17.0234 74.0912 17.5903 72.51 17.5903ZM117.349 11.1276C117.349 8.6332 115.655 6.81909 113.396 6.81909C111.137 6.81909 109.33 8.6332 109.33 11.1276C109.33 13.622 111.137 15.4361 113.396 15.4361C115.655 15.4361 117.349 13.622 117.349 11.1276ZM113.283 17.5903C109.669 17.5903 107.071 14.529 107.071 11.0142C107.071 7.49938 109.669 4.43808 113.283 4.43808C114.864 4.43808 116.332 5.11837 117.349 6.25218V5.91204C117.349 5.23175 117.913 4.77822 118.478 4.77822C119.043 4.77822 119.608 5.34513 119.608 5.91204V16.2298C119.608 16.91 119.043 17.3636 118.478 17.3636C117.913 17.3636 117.349 16.7967 117.349 16.2298V15.8896C116.332 17.0234 114.864 17.5903 113.283 17.5903ZM97.4706 15.4361C99.7294 15.4361 101.537 13.622 101.537 11.1276C101.537 8.6332 99.7294 6.81909 97.4706 6.81909C95.2117 6.81909 93.5175 8.6332 93.5175 11.1276C93.5175 13.622 95.2117 15.4361 97.4706 15.4361ZM93.5175 15.8896V21.1052C93.5175 21.7855 92.9528 22.239 92.3881 22.239C91.8234 22.239 91.2587 21.6721 91.2587 21.1052V5.91204C91.2587 5.23175 91.8234 4.77822 92.3881 4.77822C92.9528 4.77822 93.5175 5.34513 93.5175 5.91204V6.25218C94.647 5.11837 96.0023 4.43808 97.5835 4.43808C101.198 4.43808 103.795 7.49938 103.795 11.0142C103.795 14.529 101.198 17.5903 97.5835 17.5903C96.0023 17.5903 94.647 17.0234 93.5175 15.8896ZM92.9528 32.6701H90.2422V29.2686C90.2422 28.5884 89.7904 28.1348 89.1127 28.0214C88.4351 28.0214 87.8703 28.475 87.8703 29.1553V43.8949C87.8703 44.5751 88.3221 45.0287 88.9998 45.1421C89.6774 45.1421 90.2422 44.6885 90.2422 44.0082V34.8243H92.9528C93.6305 34.8243 94.0823 34.2574 94.0823 33.6905C94.0823 33.1236 93.5175 32.6701 92.9528 32.6701ZM122.77 45.4822C119.156 45.4822 116.332 42.4209 116.332 38.9061C116.332 35.3912 119.156 32.3299 122.77 32.3299C126.384 32.3299 129.208 35.3912 129.208 38.9061C129.208 42.4209 126.384 45.4822 122.77 45.4822ZM122.77 43.328C125.029 43.328 126.836 41.5138 126.836 39.0195C126.836 36.5251 124.916 34.711 122.77 34.711C120.511 34.711 118.704 36.5251 118.704 39.0195C118.704 41.5138 120.511 43.328 122.77 43.328ZM84.3691 39.0195C84.3691 35.5046 82.1102 32.4433 78.496 32.4433C74.8818 32.4433 72.1711 35.5046 72.1711 39.0195C72.1711 42.5343 74.8818 45.5956 78.496 45.5956C80.1902 45.5956 81.8843 45.1421 83.0137 44.0082C83.4655 43.5547 83.4655 42.8744 83.1267 42.5343C82.6749 42.0808 82.1102 42.1941 81.6584 42.5343C80.8678 43.1012 79.6254 43.4413 78.496 43.4413C76.5759 43.4413 74.9947 42.0808 74.543 40.2666H83.2396C83.9173 40.0399 84.3691 39.5864 84.3691 39.0195ZM78.496 34.711C80.416 34.711 81.7714 36.0715 81.9973 37.999H74.543C74.9947 36.0715 76.5759 34.711 78.496 34.711ZM152.474 43.4413L148.747 38.6793L152.248 34.5976C152.7 34.144 152.587 33.3504 152.135 33.0102C151.684 32.5567 150.893 32.6701 150.554 33.1236L146.827 37.6589H144.794V29.382C144.794 28.7017 144.229 28.2482 143.665 28.2482C142.987 28.2482 142.535 28.8151 142.535 29.382V44.235C142.535 44.9153 143.1 45.3688 143.665 45.3688C144.342 45.3688 144.794 44.8019 144.794 44.235V39.9265H146.827L150.893 45.0287C151.232 45.4822 152.022 45.5956 152.474 45.2554C152.813 44.6885 152.926 43.8949 152.474 43.4413Z" fill="white"/>
<path d="M6.4378 13.7354C9.9933 13.7354 12.8756 10.8419 12.8756 7.27262C12.8756 3.70335 9.9933 0.809875 6.4378 0.809875C2.8823 0.809875 0 3.70335 0 7.27262C0 10.8419 2.8823 13.7354 6.4378 13.7354Z" fill="white"/>
<path d="M22.3629 13.7354C25.9184 13.7354 28.8007 10.8419 28.8007 7.27262C28.8007 3.70335 25.9184 0.809875 22.3629 0.809875C18.8074 0.809875 15.9251 3.70335 15.9251 7.27262C15.9251 10.8419 18.8074 13.7354 22.3629 13.7354Z" fill="white"/>
<path d="M38.4009 13.7354C41.9564 13.7354 44.8387 10.8419 44.8387 7.27262C44.8387 3.70335 41.9564 0.809875 38.4009 0.809875C34.8454 0.809875 31.9631 3.70335 31.9631 7.27262C31.9631 10.8419 34.8454 13.7354 38.4009 13.7354Z" fill="white"/>
<path d="M6.4378 29.8355C9.9933 29.8355 12.8756 26.9421 12.8756 23.3728C12.8756 19.8035 9.9933 16.91 6.4378 16.91C2.8823 16.91 0 19.8035 0 23.3728C0 26.9421 2.8823 29.8355 6.4378 29.8355Z" fill="white"/>
<path d="M22.3629 29.8355C25.9184 29.8355 28.8007 26.9421 28.8007 23.3728C28.8007 19.8035 25.9184 16.91 22.3629 16.91C18.8074 16.91 15.9251 19.8035 15.9251 23.3728C15.9251 26.9421 18.8074 29.8355 22.3629 29.8355Z" fill="white"/>
<path d="M38.4009 29.8355C41.9564 29.8355 44.8387 26.9421 44.8387 23.3728C44.8387 19.8035 41.9564 16.91 38.4009 16.91C34.8454 16.91 31.9631 19.8035 31.9631 23.3728C31.9631 26.9421 34.8454 29.8355 38.4009 29.8355Z" fill="white"/>
<path d="M6.4378 45.9358C9.9933 45.9358 12.8756 43.0423 12.8756 39.473C12.8756 35.9037 9.9933 33.0103 6.4378 33.0103C2.8823 33.0103 0 35.9037 0 39.473C0 43.0423 2.8823 45.9358 6.4378 45.9358Z" fill="white"/>
<path d="M22.3629 45.9358C25.9184 45.9358 28.8007 43.0423 28.8007 39.473C28.8007 35.9037 25.9184 33.0103 22.3629 33.0103C18.8074 33.0103 15.9251 35.9037 15.9251 39.473C15.9251 43.0423 18.8074 45.9358 22.3629 45.9358Z" fill="white"/>
<path d="M38.4009 45.9358C41.9564 45.9358 44.8387 43.0423 44.8387 39.473C44.8387 35.9037 41.9564 33.0103 38.4009 33.0103C34.8454 33.0103 31.9631 35.9037 31.9631 39.473C31.9631 43.0423 34.8454 45.9358 38.4009 45.9358Z" fill="white"/>
<path d="M22.3629 62.0359C25.9184 62.0359 28.8007 59.1424 28.8007 55.5732C28.8007 52.0039 25.9184 49.1104 22.3629 49.1104C18.8074 49.1104 15.9251 52.0039 15.9251 55.5732C15.9251 59.1424 18.8074 62.0359 22.3629 62.0359Z" fill="white"/>
<path d="M57.6014 44.1216V37.999C57.6014 34.5975 60.0861 32.4433 63.3615 32.4433C66.5239 32.4433 69.1217 34.5975 69.1217 37.999V44.1216C69.1217 44.8019 68.5569 45.2554 67.9922 45.2554C67.3146 45.2554 66.8628 44.6885 66.8628 44.1216V38.1124C66.8628 35.9581 65.2816 34.5975 63.4745 34.5975C61.5544 34.5975 59.9732 35.9581 59.9732 38.1124V44.1216C59.9732 44.8019 59.4085 45.2554 58.8438 45.2554C58.1661 45.2554 57.6014 44.8019 57.6014 44.1216ZM99.3906 43.6681C99.6165 44.5751 100.181 45.2554 101.198 45.2554C102.214 45.2554 102.666 44.4617 102.892 43.6681L105.377 35.9581L107.861 43.6681C108.087 44.5751 108.652 45.2554 109.556 45.2554C110.572 45.2554 111.024 44.4617 111.363 43.6681L114.525 34.2574C114.751 33.6905 114.412 33.0102 113.847 32.7834C113.283 32.5567 112.605 32.8968 112.379 33.4637L109.556 42.0807L107.071 34.144C106.845 33.237 106.506 32.6701 105.377 32.6701C104.247 32.6701 104.021 33.237 103.682 34.144L101.198 42.0807L98.2612 33.4637C98.0353 32.8968 97.3576 32.5567 96.7929 32.7834C96.2282 33.0102 95.8893 33.6905 96.1152 34.2574L99.3906 43.6681ZM138.695 32.6701C139.26 32.6701 139.825 33.1236 139.825 33.8039C139.825 34.3708 139.373 34.9377 138.695 34.9377H136.775C135.533 34.9377 134.516 35.9581 134.516 37.2053V44.1216C134.516 44.8019 133.951 45.2554 133.387 45.2554C132.709 45.2554 132.257 44.6885 132.257 44.1216V37.2053C132.257 34.7109 134.29 32.7834 136.662 32.7834H138.695V32.6701Z" fill="white"/>
</g>
<defs>
<clipPath id="clip0_13_91">
<rect width="153" height="62" fill="white"/>
</clipPath>
</defs>
</svg>
